<?xml version="1.0" encoding="UTF-8"?>
<svg xmlns="http://www.w3.org/2000/svg" xmlns:xlink="http://www.w3.org/1999/xlink" width="100px" height="100px" viewBox="0 0 100 100" version="1.1">
<g id="surface1">
<path style=" stroke:none;fill-rule:nonzero;fill:rgb(99.607843%,99.607843%,99.607843%);fill-opacity:1;" d="M 0 0 C 33 0 66 0 100 0 C 100 33 100 66 100 100 C 67 100 34 100 0 100 C 0 67 0 34 0 0 Z M 0 0 "/>
<path style=" stroke:none;fill-rule:nonzero;fill:rgb(2.745098%,2.745098%,2.745098%);fill-opacity:1;" d="M 76.800781 48.398438 C 77.328125 48.398438 77.855469 48.398438 78.398438 48.398438 C 78.398438 50.972656 78.398438 53.546875 78.398438 56.199219 C 77.871094 56.199219 77.34375 56.199219 76.800781 56.199219 C 76.734375 56.066406 76.667969 55.9375 76.601562 55.800781 C 76.402344 55.933594 76.203125 56.0625 76 56.199219 C 75.105469 56.34375 74.402344 56.316406 73.613281 55.863281 C 72.730469 54.875 72.714844 53.851562 72.734375 52.578125 C 72.828125 51.753906 73.042969 51.402344 73.601562 50.800781 C 74.21875 50.386719 74.390625 50.339844 75.101562 50.335938 C 75.253906 50.335938 75.410156 50.332031 75.570312 50.328125 C 76 50.398438 76 50.398438 76.601562 51 C 76.664062 50.140625 76.730469 49.285156 76.800781 48.398438 Z M 76.800781 48.398438 "/>
<path style=" stroke:none;fill-rule:nonzero;fill:rgb(67.058825%,12.156863%,96.470588%);fill-opacity:1;" d="M 21.800781 43.398438 C 22.394531 43.398438 22.988281 43.398438 23.601562 43.398438 C 23.601562 44.457031 23.601562 45.511719 23.601562 46.601562 C 24.65625 46.601562 25.710938 46.601562 26.800781 46.601562 C 26.800781 45.542969 26.800781 44.488281 26.800781 43.398438 C 27.328125 43.398438 27.855469 43.398438 28.398438 43.398438 C 28.398438 45.972656 28.398438 48.546875 28.398438 51.199219 C 27.871094 51.199219 27.34375 51.199219 26.800781 51.199219 C 26.800781 50.144531 26.800781 49.089844 26.800781 48 C 25.742188 48 24.6875 48 23.601562 48 C 23.601562 49.054688 23.601562 50.113281 23.601562 51.199219 C 23.007812 51.199219 22.410156 51.199219 21.800781 51.199219 C 21.800781 48.625 21.800781 46.050781 21.800781 43.398438 Z M 21.800781 43.398438 "/>
<path style=" stroke:none;fill-rule:nonzero;fill:rgb(65.882355%,9.019608%,96.470588%);fill-opacity:1;" d="M 36.398438 45.398438 C 36.863281 45.398438 37.324219 45.398438 37.800781 45.398438 C 37.867188 45.664062 37.933594 45.929688 38 46.199219 C 38.097656 46.066406 38.199219 45.9375 38.300781 45.800781 C 39.039062 45.210938 39.46875 45.296875 40.398438 45.398438 C 40.800781 45.699219 40.800781 45.699219 41 46 C 41.539062 45.757812 41.539062 45.757812 42 45.398438 C 42.378906 45.34375 42.378906 45.34375 42.851562 45.324219 C 43.003906 45.316406 43.15625 45.304688 43.316406 45.296875 C 44.101562 45.464844 44.34375 45.734375 44.800781 46.398438 C 44.921875 47.222656 44.894531 48.03125 44.863281 48.863281 C 44.859375 49.085938 44.851562 49.3125 44.847656 49.542969 C 44.835938 50.09375 44.820312 50.648438 44.800781 51.199219 C 44.273438 51.199219 43.742188 51.199219 43.199219 51.199219 C 43.101562 49.121094 43.101562 49.121094 43 47 C 42.40625 46.902344 42.40625 46.902344 41.800781 46.800781 C 41.476562 47.125 41.554688 47.492188 41.535156 47.9375 C 41.527344 48.128906 41.519531 48.316406 41.511719 48.511719 C 41.503906 48.710938 41.496094 48.90625 41.488281 49.113281 C 41.480469 49.3125 41.46875 49.511719 41.460938 49.71875 C 41.441406 50.210938 41.417969 50.707031 41.398438 51.199219 C 40.871094 51.199219 40.34375 51.199219 39.800781 51.199219 C 39.734375 49.8125 39.667969 48.429688 39.601562 47 C 38.679688 46.710938 38.679688 46.710938 38.199219 47 C 38.132812 48.386719 38.066406 49.773438 38 51.199219 C 37.472656 51.199219 36.945312 51.199219 36.398438 51.199219 C 36.398438 49.285156 36.398438 47.371094 36.398438 45.398438 Z M 36.398438 45.398438 "/>
<path style=" stroke:none;fill-rule:nonzero;fill:rgb(2.352941%,2.352941%,2.352941%);fill-opacity:1;" d="M 63.398438 50.398438 C 63.988281 50.636719 63.988281 50.636719 64.398438 51 C 64.550781 51.128906 64.707031 51.253906 64.863281 51.386719 C 65.386719 52.339844 65.355469 53.335938 65.199219 54.398438 C 64.78125 55.210938 64.410156 55.753906 63.601562 56.199219 C 62.652344 56.34375 61.679688 56.421875 60.792969 56.007812 C 60.152344 55.511719 59.773438 54.984375 59.601562 54.199219 C 59.492188 53.183594 59.480469 52.4375 59.949219 51.511719 C 61.007812 50.308594 61.839844 50.230469 63.398438 50.398438 Z M 63.398438 50.398438 "/>
<path style=" stroke:none;fill-rule:nonzero;fill:rgb(65.882355%,9.411765%,96.470588%);fill-opacity:1;" d="M 33.398438 45.398438 C 33.988281 45.636719 33.988281 45.636719 34.398438 46 C 34.550781 46.128906 34.707031 46.253906 34.863281 46.386719 C 35.386719 47.339844 35.355469 48.335938 35.199219 49.398438 C 34.78125 50.210938 34.410156 50.753906 33.601562 51.199219 C 32.652344 51.34375 31.679688 51.421875 30.792969 51.007812 C 30.152344 50.511719 29.773438 49.984375 29.601562 49.199219 C 29.492188 48.183594 29.480469 47.4375 29.949219 46.511719 C 31.007812 45.308594 31.839844 45.230469 33.398438 45.398438 Z M 33.398438 45.398438 "/>
<path style=" stroke:none;fill-rule:nonzero;fill:rgb(3.137255%,3.137255%,3.529412%);fill-opacity:1;" d="M 53.871094 48.53125 C 54.921875 48.992188 55.347656 49.558594 55.800781 50.601562 C 55.800781 50.796875 55.800781 50.996094 55.800781 51.199219 C 55.207031 51.199219 54.613281 51.199219 54 51.199219 C 53.933594 50.871094 53.867188 50.539062 53.800781 50.199219 C 53.058594 49.960938 52.375 49.929688 51.601562 50 C 51.019531 50.445312 50.832031 50.703125 50.601562 51.398438 C 50.546875 52.496094 50.601562 53.375 51 54.398438 C 51.527344 54.578125 51.855469 54.632812 52.398438 54.636719 C 52.605469 54.640625 52.605469 54.640625 52.8125 54.644531 C 53.265625 54.621094 53.265625 54.621094 53.800781 54.199219 C 53.867188 54.003906 53.933594 53.804688 54 53.601562 C 54.527344 53.601562 55.054688 53.601562 55.601562 53.601562 C 55.546875 54.382812 55.449219 54.742188 54.9375 55.351562 C 53.863281 56.25 53.023438 56.300781 51.640625 56.273438 C 50.71875 56.167969 50.199219 55.898438 49.601562 55.199219 C 48.617188 53.953125 48.640625 52.527344 48.800781 51 C 49.140625 49.894531 49.890625 49.273438 50.800781 48.601562 C 51.699219 48.152344 52.925781 48.269531 53.871094 48.53125 Z M 53.871094 48.53125 "/>
<path style=" stroke:none;fill-rule:nonzero;fill:rgb(67.058825%,12.156863%,96.470588%);fill-opacity:1;" d="M 49.601562 45.398438 C 50.523438 45.753906 50.941406 46.335938 51.398438 47.199219 C 51.550781 47.800781 51.550781 47.800781 51.398438 48.398438 C 51.023438 48.746094 50.636719 49.023438 50.207031 49.300781 C 49.523438 49.804688 49.152344 50.4375 48.800781 51.199219 C 47.902344 51.289062 47.5 51.265625 46.738281 50.761719 C 45.816406 49.796875 45.707031 48.988281 45.734375 47.6875 C 45.851562 46.796875 46.316406 46.257812 46.960938 45.671875 C 47.769531 45.171875 48.679688 45.300781 49.601562 45.398438 Z M 49.601562 45.398438 "/>
<path style=" stroke:none;fill-rule:nonzero;fill:rgb(3.137255%,3.137255%,3.137255%);fill-opacity:1;" d="M 66.398438 50.398438 C 66.929688 50.398438 67.457031 50.398438 68 50.398438 C 68.003906 50.519531 68.011719 50.640625 68.015625 50.765625 C 68.039062 51.304688 68.0625 51.847656 68.085938 52.386719 C 68.09375 52.578125 68.101562 52.765625 68.109375 52.960938 C 68.125 53.230469 68.125 53.230469 68.136719 53.503906 C 68.144531 53.671875 68.152344 53.839844 68.160156 54.011719 C 68.160156 54.402344 68.160156 54.402344 68.398438 54.601562 C 69 54.632812 69 54.632812 69.601562 54.601562 C 69.917969 54.28125 69.84375 53.945312 69.863281 53.503906 C 69.871094 53.324219 69.878906 53.144531 69.890625 52.960938 C 69.898438 52.769531 69.90625 52.582031 69.914062 52.386719 C 69.921875 52.199219 69.929688 52.007812 69.9375 51.8125 C 69.960938 51.339844 69.980469 50.871094 70 50.398438 C 70.527344 50.398438 71.054688 50.398438 71.601562 50.398438 C 71.601562 52.3125 71.601562 54.226562 71.601562 56.199219 C 71.136719 56.199219 70.675781 56.199219 70.199219 56.199219 C 70.132812 55.9375 70.066406 55.671875 70 55.398438 C 69.90625 55.53125 69.808594 55.664062 69.710938 55.800781 C 69.066406 56.304688 68.660156 56.308594 67.863281 56.34375 C 67.292969 56.167969 66.957031 55.886719 66.59375 55.410156 C 66.183594 54.539062 66.300781 53.570312 66.335938 52.625 C 66.34375 52.410156 66.347656 52.195312 66.351562 51.976562 C 66.363281 51.449219 66.378906 50.925781 66.398438 50.398438 Z M 66.398438 50.398438 "/>
<path style=" stroke:none;fill-rule:nonzero;fill:rgb(10.980392%,10.980392%,10.980392%);fill-opacity:1;" d="M 56.800781 48.398438 C 57.394531 48.398438 57.988281 48.398438 58.601562 48.398438 C 58.601562 50.972656 58.601562 53.546875 58.601562 56.199219 C 58.007812 56.199219 57.410156 56.199219 56.800781 56.199219 C 56.800781 53.625 56.800781 51.050781 56.800781 48.398438 Z M 56.800781 48.398438 "/>
<path style=" stroke:none;fill-rule:nonzero;fill:rgb(96.470588%,96.470588%,96.470588%);fill-opacity:1;" d="M 62.398438 51.511719 C 63.066406 51.609375 63.207031 51.675781 63.601562 52.199219 C 63.679688 52.667969 63.679688 52.667969 63.675781 53.1875 C 63.675781 53.359375 63.679688 53.53125 63.679688 53.707031 C 63.585938 54.296875 63.414062 54.574219 63 55 C 62.398438 55.101562 62.398438 55.101562 61.800781 55 C 61.328125 54.640625 61.21875 54.355469 61.144531 53.773438 C 61.117188 53.070312 61.140625 52.539062 61.425781 51.886719 C 61.800781 51.601562 61.800781 51.601562 62.398438 51.511719 Z M 62.398438 51.511719 "/>
<path style=" stroke:none;fill-rule:nonzero;fill:rgb(98.823529%,96.862745%,99.607843%);fill-opacity:1;" d="M 32.398438 46.5 C 33 46.601562 33 46.601562 33.375 46.886719 C 33.714844 47.660156 33.710938 48.371094 33.601562 49.199219 C 33.375 49.710938 33.375 49.710938 33 50 C 32.398438 50.101562 32.398438 50.101562 31.800781 50 C 31.328125 49.640625 31.21875 49.355469 31.144531 48.773438 C 31.117188 48.070312 31.140625 47.539062 31.425781 46.886719 C 31.800781 46.601562 31.800781 46.601562 32.398438 46.5 Z M 32.398438 46.5 "/>
<path style=" stroke:none;fill-rule:nonzero;fill:rgb(96.078432%,96.078432%,96.078432%);fill-opacity:1;" d="M 76.199219 51.601562 C 76.648438 51.933594 76.785156 52.113281 76.878906 52.667969 C 76.878906 52.839844 76.875 53.011719 76.875 53.1875 C 76.875 53.359375 76.878906 53.53125 76.878906 53.707031 C 76.785156 54.285156 76.582031 54.5625 76.199219 55 C 74.894531 54.902344 74.894531 54.902344 74.511719 54.488281 C 74.347656 53.777344 74.28125 53.121094 74.398438 52.398438 C 74.898438 51.660156 75.3125 51.441406 76.199219 51.601562 Z M 76.199219 51.601562 "/>
<path style=" stroke:none;fill-rule:nonzero;fill:rgb(97.254902%,96.078432%,97.647059%);fill-opacity:1;" d="M 47.398438 48.800781 C 48.390625 48.800781 49.378906 48.800781 50.398438 48.800781 C 50.078125 49.269531 49.824219 49.632812 49.398438 50 C 48.667969 50.113281 48.238281 50.160156 47.613281 49.738281 C 47.398438 49.398438 47.398438 49.398438 47.398438 48.800781 Z M 47.398438 48.800781 "/>
<path style=" stroke:none;fill-rule:nonzero;fill:rgb(95.294118%,87.843138%,99.215686%);fill-opacity:1;" d="M 48.699219 46.550781 C 49.398438 46.601562 49.398438 46.601562 49.800781 47 C 49.800781 47.265625 49.800781 47.527344 49.800781 47.800781 C 49.007812 47.800781 48.214844 47.800781 47.398438 47.800781 C 47.695312 46.621094 47.695312 46.621094 48.699219 46.550781 Z M 48.699219 46.550781 "/>
</g>
</svg>
